nColumns=19
nRows=83
DataType=double
version=3
OpenSimVersion=4.1
endheader
time	ground_force_1_vx	ground_force_1_vy	ground_force_1_vz	ground_force_1_px	ground_force_1_py	ground_force_1_pz	ground_force_1_mx	ground_force_1_my	ground_force_1_mz	ground_force_2_vx	ground_force_2_vy	ground_force_2_vz	ground_force_2_px	ground_force_2_py	ground_force_2_pz	ground_force_2_mx	ground_force_2_my	ground_force_2_mz
0.02	3.0215	34.0301	5.40432	0.119733	0.006	-0.147494	0	0.38297	0	0	0	0	0.713043	0	-0.247629	0	0	0
0.03	1.63014	54.9243	6.28071	0.137855	0.006	-0.148043	0	0.346074	0	0	0	0	0.713043	0	-0.247629	0	0	0
0.04	-0.551354	80.5218	7.03207	0.149029	0.006	-0.148043	0	0.325043	0	0	0	0	0.713043	0	-0.247629	0	0	0
0.05	-3.69121	110.898	7.55342	0.157098	0.006	-0.147822	0	0.305385	0	0	0	0	0.713043	0	-0.247629	0	0	0
0.06	-7.94777	145.823	7.71695	0.163576	0.006	-0.147491	0	0.281284	0	0	0	0	0.713043	0	-0.247629	0	0	0
0.07	-13.3851	184.778	7.38232	0.169187	0.006	-0.14709	0	0.249943	0	0	0	0	0.713043	0	-0.247629	0	0	0
0.08	-19.8963	227.015	6.41218	0.174312	0.006	-0.146631	0	0.210211	0	0	0	0	0.713043	0	-0.247629	0	0	0
0.09	-27.2512	271.552	4.69491	0.179162	0.006	-0.146119	0	0.162735	0	0	0	0	0.713043	0	-0.247629	0	0	0
0.1	-35.1541	317.184	2.16877	0.183862	0.006	-0.145561	0	0.110739	0	0	0	0	0.713043	0	-0.247629	0	0	0
0.11	-43.264	362.578	-1.1477	0.188488	0.006	-0.144969	0	0.061324	0	0	0	0	0.713043	0	-0.247629	0	0	0
0.12	-51.2289	406.442	-5.1339	0.193082	0.006	-0.144361	0	0.025723	0	0	0	0	0.713043	0	-0.247629	0	0	0
0.13	-58.7226	447.684	-9.57864	0.197662	0.006	-0.143758	0	0.016197	0	0	0	0	0.713043	0	-0.247629	0	0	0
0.14	-65.4794	485.538	-14.2308	0.202236	0.006	-0.143181	0	0.041285	0	0	0	0	0.713043	0	-0.247629	0	0	0
0.15	-71.3173	519.586	-18.8436	0.206802	0.006	-0.142648	0	0.104187	0	0	0	0	0.713043	0	-0.247629	0	0	0
0.16	-76.1204	549.661	-23.186	0.211351	0.006	-0.142174	0	0.203854	0	0	0	0	0.713043	0	-0.247629	0	0	0
0.17	-79.8213	575.716	-27.0586	0.215868	0.006	-0.14177	0	0.334851	0	0	0	0	0.713043	0	-0.247629	0	0	0
0.18	-82.3973	597.732	-30.3218	0.220336	0.006	-0.141444	0	0.48712	0	0	0	0	0.713043	0	-0.247629	0	0	0
0.19	-83.8608	615.681	-32.9076	0.224743	0.006	-0.141193	0	0.648011	0	0	0	0	0.713043	0	-0.247629	0	0	0
0.2	-84.254	629.52	-34.8158	0.229082	0.006	-0.141013	0	0.80469	0	0	0	0	0.713043	0	-0.247629	0	0	0
0.21	-83.648	639.217	-36.1026	0.233352	0.006	-0.140892	0	0.945786	0	0	0	0	0.713043	0	-0.247629	0	0	0
0.22	-82.1408	644.783	-36.8588	0.237562	0.006	-0.140818	0	1.06259	0	0	0	0	0.713043	0	-0.247629	0	0	0
0.23	-79.8531	646.312	-37.1845	0.241722	0.006	-0.140781	0	1.14923	0	0	0	0	0.713043	0	-0.247629	0	0	0
0.24	-76.9177	644.007	-37.1706	0.245847	0.006	-0.140771	0	1.20209	0	0	0	0	0.713043	0	-0.247629	0	0	0
0.25	-73.4688	638.198	-36.8881	0.249954	0.006	-0.140786	0	1.21918	0	0	0	0	0.713043	0	-0.247629	0	0	0
0.26	-69.6344	629.337	-36.386	0.254055	0.006	-0.140825	0	1.19951	0	0	0	0	0.713043	0	-0.247629	0	0	0
0.27	-65.5297	617.975	-35.6948	0.258159	0.006	-0.140895	0	1.14255	0	0	0	0	0.713043	0	-0.247629	0	0	0
0.28	-61.2534	604.737	-34.8344	0.262271	0.006	-0.141003	0	1.04802	0	0	0	0	0.713043	0	-0.247629	0	0	0
0.29	-56.8857	590.285	-33.8215	0.266391	0.006	-0.141157	0	0.915802	0	0	0	0	0.713043	0	-0.247629	0	0	0
0.3	-52.4872	575.287	-32.676	0.270511	0.006	-0.141369	0	0.746124	0	0	0	0	0.713043	0	-0.247629	0	0	0
0.31	-48.1007	560.385	-31.4254	0.274622	0.006	-0.141644	0	0.539623	0	0	0	0	0.713043	0	-0.247629	0	0	0
0.32	-43.7522	546.171	-30.1054	0.278708	0.006	-0.141988	0	0.297514	0	0	0	0	0.713043	0	-0.247629	0	0	0
0.33	-39.4525	533.168	-28.7589	0.282751	0.006	-0.142403	0	0.021672	0	0	0	0	0.713043	0	-0.247629	0	0	0
0.34	-35.1985	521.819	-27.4332	0.28673	0.006	-0.142885	0	-0.285436	0	0	0	0	0.713043	0	-0.247629	0	0	0
0.35	-30.9751	512.485	-26.1775	0.29062	0.006	-0.143429	0	-0.620807	0	0	0	0	0.713043	0	-0.247629	0	0	0
0.36	-26.7576	505.444	-25.0383	0.294398	0.006	-0.144026	0	-0.980979	0	0	0	0	0.713043	0	-0.247629	0	0	0
0.37	-22.5136	500.895	-24.056	0.29804	0.006	-0.144666	0	-1.36207	0	0	0	0	0.713043	0	-0.247629	0	0	0
0.38	-18.2043	498.96	-23.2618	0.301529	0.006	-0.145338	0	-1.75984	0	0	0	0	0.713043	0	-0.247629	0	0	0
0.39	-13.7871	499.689	-22.6758	0.304848	0.006	-0.146029	0	-2.16969	0	0	0	0	0.713043	0	-0.247629	0	0	0
0.4	-9.21678	503.062	-22.306	0.30799	0.006	-0.146731	0	-2.58674	0	0	0	0	0.713043	0	-0.247629	0	0	0
0.41	-4.44895	508.994	-22.1484	0.31095	0.006	-0.147436	0	-3.00589	0	0	0	0	0.713043	0	-0.247629	0	0	0
0.42	0.55735	517.337	-22.1862	0.313732	0.006	-0.148137	0	-3.42198	0	0	0	0	0.713043	0	-0.247629	0	0	0
0.43	5.83652	527.885	-22.3909	0.316341	0.006	-0.148829	0	-3.82976	0	0	0	0	0.713043	0	-0.247629	0	0	0
0.44	11.413	540.377	-22.7239	0.318788	0.006	-0.149511	0	-4.22375	0	0	0	0	0.713043	0	-0.247629	0	0	0
0.45	17.2973	554.497	-23.1394	0.32108	0.006	-0.150179	0	-4.59809	0	0	0	0	0.713043	0	-0.247629	0	0	0
0.46	23.482	569.871	-23.5869	0.32323	0.006	-0.150831	0	-4.94623	0	0	0	0	0.713043	0	-0.247629	0	0	0
0.47	29.9399	586.057	-24.0141	0.325248	0.006	-0.151464	0	-5.26093	0	0	0	0	0.713043	0	-0.247629	0	0	0
0.48	36.6223	602.531	-24.3703	0.327143	0.006	-0.152075	0	-5.53412	0	0	0	0	0.713043	0	-0.247629	0	0	0
0.49	43.4598	618.681	-24.6082	0.328928	0.006	-0.152659	0	-5.75726	0	0	0	0	0.713043	0	-0.247629	0	0	0
0.5	50.3639	633.797	-24.6848	0.330616	0.006	-0.153215	0	-5.92185	0	0	0	0	0.713043	0	-0.247629	0	0	0
0.51	57.2291	647.076	-24.564	0.332219	0.006	-0.153737	0	-6.02024	0	0	0	0	0.713043	0	-0.247629	0	0	0
0.52	63.9339	657.643	-24.2175	0.333751	0.006	-0.154222	0	-6.04634	0	0	0	0	0.713043	0	-0.247629	0	0	0
0.53	70.3413	664.587	-23.627	0.335226	0.006	-0.154667	0	-5.99645	0	0	0	0	0.713043	0	-0.247629	0	0	0
0.54	76.298	667.022	-22.7849	0.336657	0.006	-0.155068	0	-5.86978	0	0	0	0	0.713043	0	-0.247629	0	0	0
0.55	81.6341	664.143	-21.694	0.338056	0.006	-0.155421	0	-5.66885	0	8.21468	29.1706	-4.34407	0.736046	0.006	-0.2546	0	0.441164	0
0.56	86.1668	655.286	-20.3681	0.339438	0.006	-0.155722	0	-5.39944	0	7.92252	48.3889	-4.4235	0.769536	0.006	-0.264214	0	0.49194	0
0.57	89.7059	639.976	-18.8302	0.340814	0.006	-0.155966	0	-5.07039	0	6.79135	71.9351	-4.3378	0.78816	0.006	-0.269012	0	0.523408	0
0.58	92.0641	617.972	-17.1129	0.342197	0.006	-0.156149	0	-4.69305	0	4.54924	99.8811	-4.02261	0.800535	0.006	-0.27179	0	0.548841	0
0.59	93.0702	589.297	-15.2574	0.343602	0.006	-0.156267	0	-4.28045	0	0.927966	132.048	-3.41162	0.809788	0.006	-0.273551	0	0.57321	0
0.6	92.5871	554.276	-13.3131	0.345048	0.006	-0.156318	0	-3.84642	0	-4.18554	168.095	-2.43682	0.817314	0.006	-0.274745	0	0.599309	0
0.61	90.5321	513.551	-11.3365	0.346554	0.006	-0.1563	0	-3.40452	0	-10.7003	207.565	-1.02752	0.823798	0.006	-0.2756	0	0.62862	0
0.62	86.899	468.08	-9.38981	0.348145	0.006	-0.156214	0	-2.96688	0	-18.4077	249.806	0.869017	0.829608	0.006	-0.276237	0	0.661362	0
0.63	81.7743	419.104	-7.53697	0.349846	0.006	-0.15606	0	-2.54324	0	-27.0115	293.91	3.27049	0.834948	0.006	-0.276724	0	0.696486	0
0.64	75.3444	368.079	-5.83652	0.351688	0.006	-0.15584	0	-2.14074	0	-36.1337	338.752	6.14049	0.839942	0.006	-0.277095	0	0.730998	0
0.65	67.8889	316.568	-4.33404	0.353706	0.006	-0.155556	0	-1.76433	0	-45.3493	383.09	9.37985	0.844665	0.006	-0.27737	0	0.759863	0
0.66	59.7551	266.117	-3.05723	0.355946	0.006	-0.155204	0	-1.41764	0	-54.2247	425.719	12.8472	0.849167	0.006	-0.277558	0	0.778315	0
0.67	51.3154	218.119	-2.01424	0.358481	0.006	-0.154772	0	-1.10357	0	-62.3796	465.626	16.3981	0.853489	0.006	-0.277666	0	0.784406	0
0.68	42.9248	173.728	-1.19487	0.361436	0.006	-0.154234	0	-0.82442	0	-69.5273	502.055	19.9004	0.857666	0.006	-0.277699	0	0.778368	0
0.69	34.8909	133.797	-0.574728	0.365033	0.006	-0.153537	0	-0.581622	0	-75.4687	534.507	23.2262	0.861729	0.006	-0.277662	0	0.760987	0
0.7	27.4545	98.8587	-0.121451	0.369698	0.006	-0.152579	0	-0.375403	0	-80.0904	562.681	26.2541	0.865699	0.006	-0.277556	0	0.733948	0
0.71	20.7852	69.142	0.198453	0.37632	0.006	-0.151149	0	-0.204656	0	-83.3473	586.416	28.8808	0.869595	0.006	-0.277383	0	0.700209	0
0.72	14.9843	44.6045	0.413617	0.387046	0.006	-0.148733	0	-0.06693	0	-85.2472	605.647	31.0274	0.87343	0.006	-0.277143	0	0.663504	0
0.73	10.0916	24.9812	0.546298	0.408656	0.006	-0.143699	0	0.041947	0	-85.8412	620.381	32.6469	0.877215	0.006	-0.276837	0	0.628116	0
0.74	0	0	0	0.439454	0	-0.142359	0	0	0	-85.2183	630.699	33.7287	0.880961	0.006	-0.276472	0	0.598583	0
0.75	0	0	0	0.468734	0	-0.142862	0	0	0	-83.5017	636.76	34.2951	0.884682	0.006	-0.276054	0	0.57917	0
0.76	0	0	0	0.498013	0	-0.143366	0	0	0	-80.8441	638.801	34.3938	0.888395	0.006	-0.27559	0	0.573365	0
0.77	0	0	0	0.527293	0	-0.14387	0	0	0	-77.4178	637.14	34.0904	0.892122	0.006	-0.27509	0	0.583549	0
0.78	0	0	0	0.556572	0	-0.144373	0	0	0	-73.4032	632.176	33.4601	0.895886	0.006	-0.274561	0	0.610901	0
0.79	0	0	0	0.585851	0	-0.144877	0	0	0	-68.9754	624.384	32.581	0.899711	0.006	-0.274015	0	0.655624	0
0.8	0	0	0	0.615131	0	-0.145381	0	0	0	-64.2942	614.301	31.5274	0.903619	0.006	-0.27346	0	0.717106	0
0.81	0	0	0	0.64441	0	-0.145885	0	0	0	-59.4981	602.508	30.3664	0.90763	0.006	-0.272905	0	0.794125	0
0.82	0	0	0	0.67369	0	-0.146388	0	0	0	-54.7005	589.61	29.1565	0.911754	0.006	-0.272358	0	0.88504	0
0.83	0	0	0	0.702969	0	-0.146892	0	0	0	-49.9888	576.213	27.9466	0.915994	0.006	-0.271826	0	0.987968	0
0.84	0	0	0	0.732249	0	-0.147396	0	0	0	-45.4254	562.906	26.776	0.920342	0.006	-0.271313	0	1.10101	0
